<?xml version="1.0" encoding="UTF-8"?>
<svg id="Warstwa_2" data-name="Warstwa 2" xmlns="http://www.w3.org/2000/svg" viewBox="0 0 324.55 84.28">
  <defs>
    <style>
      .cls-1 {
        fill: #3792bb;
      }

      .cls-2 {
        fill: #002645;
      }
    </style>
  </defs>
  <g id="Layer_1" data-name="Layer 1">
    <path class="cls-1" d="M68.25,73.87l-3.78,10.33h2.29l.8-2.26h3.92l.8,2.26h2.38l-3.75-10.33h-2.65ZM68.15,80.15l1.36-3.92,1.37,3.92h-2.73ZM80.17,73.87h-2.21v10.33h6.31v-1.9h-4.1v-8.42ZM87.82,84.2h2.21v-10.33h-2.21v10.33ZM99.91,81.45l-2.86-7.58h-2.91v10.33h2.11v-6.92l2.69,6.92h1.8l2.69-6.92v6.92h2.11v-10.33h-2.85l-2.77,7.58ZM111.88,79.9h3.84v-1.81h-3.84v-2.32h4.72v-1.9h-6.93v10.33h7.1v-1.9h-4.88v-2.39ZM126.84,80.38l-4.38-6.51h-2.01v10.33h2.17v-6.51l4.38,6.51h2.02v-10.33h-2.18v6.51ZM132.55,75.77h2.98v8.42h2.21v-8.42h2.99v-1.9h-8.19v1.9ZM148.35,78.1l-2.32-4.23h-2.58l3.79,6.49v3.84h2.21v-3.84l3.79-6.49h-2.46l-2.43,4.23ZM168.27,78.89c1.18-.25,1.95-.99,1.95-2.29,0-1.73-1.39-2.73-3.78-2.73h-3.92v10.33h4.12c2.54,0,3.95-1.14,3.95-2.94,0-1.47-.94-2.2-2.32-2.37ZM164.73,75.61h1.77c.96,0,1.5.49,1.5,1.25s-.56,1.25-1.5,1.25h-1.77v-2.51ZM166.65,82.44h-1.92v-2.61h1.92c1.05,0,1.67.49,1.67,1.33,0,.8-.61,1.28-1.67,1.28ZM176.49,79.9h3.84v-1.81h-3.84v-2.32h4.72v-1.9h-6.93v10.33h7.1v-1.9h-4.88v-2.39ZM192.89,75.33v-1.46h-8.22v1.89h5.16l-5.3,6.98v1.46h8.48v-1.89h-5.43l5.3-6.98ZM202.07,75.77h2.98v8.42h2.21v-8.42h2.99v-1.9h-8.19v1.9ZM215.3,73.87l-3.78,10.33h2.29l.8-2.26h3.92l.8,2.26h2.38l-3.75-10.33h-2.65ZM215.2,80.15l1.36-3.92,1.37,3.92h-2.73ZM226.88,81.02c0,.86-.34,1.27-1.21,1.27h-1.22v1.9h1.9c1.74,0,2.74-1,2.74-2.74v-7.58h-2.21v7.15ZM235.44,79.9h3.84v-1.81h-3.84v-2.32h4.72v-1.9h-6.93v10.33h7.1v-1.9h-4.88v-2.39ZM249.78,81.45l-2.86-7.58h-2.91v10.33h2.11v-6.92l2.69,6.92h1.8l2.69-6.92v6.92h2.11v-10.33h-2.85l-2.77,7.58ZM265.92,80.38l-4.38-6.51h-2.01v10.33h2.17v-6.51l4.38,6.51h2.02v-10.33h-2.18v6.51ZM272.22,84.2h2.21v-10.33h-2.21v10.33ZM283.05,82.41c-1.67,0-2.66-1.4-2.66-3.38s1-3.38,2.69-3.38c1.22,0,2.05.75,2.32,1.9h2.24c-.27-2.24-1.99-3.78-4.44-3.78-3.13,0-5.06,2.08-5.06,5.25s1.86,5.25,4.93,5.25c2.52,0,4.31-1.53,4.56-3.78h-2.23c-.27,1.15-1.09,1.9-2.35,1.9Z"/>
    <path class="cls-2" d="M79.48,20.01l-15.85,43.35h9.6l3.34-9.48h16.47l3.34,9.48h9.97l-15.73-43.35h-11.15ZM79.05,46.4l5.7-16.47,5.76,16.47h-11.46ZM110.26,63.37h8.73V20.01h-8.73v43.35ZM126,63.37h8.79v-31.83h-8.79v31.83ZM166.62,51.85l-12.02-31.83h-12.2v43.35h8.86v-29.05l11.27,29.05h7.56l11.27-29.05v29.05h8.86V20.01h-11.95l-11.64,31.83ZM225.89,54.02v-11.27c0-7.62-5.14-11.58-14.06-11.58-8.42,0-14.12,4.09-14.74,10.28h8.42c.37-2.35,2.66-3.9,6.07-3.9,3.65,0,5.7,1.86,5.7,4.71v1.55h-6.32c-9.54,0-14.62,3.84-14.62,10.59,0,6.07,4.95,9.35,11.83,9.35,4.95,0,8.18-2.04,10.4-5.57-.06,3.03,1.36,5.2,5.88,5.2h4.46v-7.37h-.99c-1.36,0-2.04-.31-2.04-1.98ZM217.28,50.24c-.06,4.34-2.85,7.18-7.43,7.18-2.91,0-4.71-1.42-4.71-3.65,0-2.66,2.11-4.15,5.76-4.15h6.38v.62ZM243.66,52.84v-13.94h7.31v-7.37h-7.31v-8.92h-8.73v8.92h-5.26v7.37h5.26v15.36c0,6.07,3.03,9.1,9.1,9.1h7.12v-7.37h-4.33c-2.29,0-3.16-.93-3.16-3.16ZM264.53,36.3l-.8-4.77h-7.93v31.83h8.73v-15.61c0-4.83,1.98-8.3,7.18-8.3h3.47v-7.93h-1.49c-4.95,0-7.43,1.92-9.17,4.77ZM279.09,63.37h8.79v-31.83h-8.79v31.83ZM312.72,47.14l11.21-15.61h-9.41l-6.75,9.41-6.56-9.41h-9.97l11.27,15.61-11.83,16.23h9.35l7.25-9.97,7.31,9.97h9.97l-11.83-16.23Z"/>
    <path class="cls-1" d="M134.71,28.88v-7.27c0-.21-.12-.41-.3-.51l-7.29-4c-.39-.21-.86.07-.86.51v7.27c0,.21.12.41.3.51l7.29,4c.39.21.86-.07.86-.51Z"/>
    <path class="cls-1" d="M279.49,17.62v7.27c0,.21.12.41.3.51l7.29,4c.39.21.86-.07.86-.51v-7.27c0-.21-.12-.41-.3-.51l-7.29-4c-.39-.21-.86.07-.86.51Z"/>
    <g>
      <path class="cls-2" d="M52.59.16l-16.22,8.89c-.41.23-.67.66-.67,1.13v16.17c0,.98,1.05,1.6,1.91,1.13l16.22-8.89c.41-.23.67-.66.67-1.13V1.29c0-.98-1.05-1.6-1.91-1.13ZM52.59,36.38l-16.22,8.89c-.41.23-.67.66-.67,1.13v16.17c0,.98,1.05,1.6,1.91,1.13l16.22-8.89c.41-.23.67-.66.67-1.13v-16.17c0-.98-1.05-1.6-1.91-1.13ZM16.89,36.38L.67,45.27c-.41.23-.67.66-.67,1.13v16.17c0,.98,1.05,1.6,1.91,1.13l16.22-8.89c.41-.23.67-.66.67-1.13v-16.17c0-.98-1.05-1.6-1.91-1.13Z"/>
      <path class="cls-1" d="M17.9,35.57v-16.17c0-.98,1.05-1.6,1.91-1.13l16.22,8.89c.41.23.67.66.67,1.13v16.17c0,.98-1.05,1.6-1.91,1.13l-16.22-8.89c-.41-.23-.67-.66-.67-1.13Z"/>
    </g>
  </g>
</svg>